<?xml version="1.0" encoding="UTF-8"?>
<svg width="257px" height="175px" viewBox="0 0 257 175" version="1.1" xmlns="http://www.w3.org/2000/svg" xmlns:xlink="http://www.w3.org/1999/xlink">
    <!-- Generator: Sketch 52.2 (67145) - http://www.bohemiancoding.com/sketch -->
    <title>分组 11</title>
    <desc>Created with Sketch.</desc>
    <defs>
        <polygon id="path-1" points="0 0 257 0 257 158 0 158"></polygon>
        <filter x="-3.5%" y="-5.7%" width="107.0%" height="111.4%" filterUnits="objectBoundingBox" id="filter-3">
            <feGaussianBlur stdDeviation="3" in="SourceGraphic"></feGaussianBlur>
        </filter>
        <polygon id="path-4" points="0 0.941000594 240.062 0.941000594 240.062 158.999946 0 158.999946"></polygon>
    </defs>
    <g id="Page-1" stroke="none" stroke-width="1" fill="none" fill-rule="evenodd">
        <g id="前往课程界面" transform="translate(-1192.000000, -1031.000000)">
            <g id="分组-11" transform="translate(1192.000000, 1031.000000)">
                <g id="分组" transform="translate(0.000000, 17.000000)">
                    <mask id="mask-2" fill="white">
                        <use xlink:href="#path-1"></use>
                    </mask>
                    <g id="Clip-2"></g>
                    <path d="M241.485188,61.3987933 C237.555176,60.9929447 233.852122,61.2878347 230.359968,62.1185248 C228.437249,37.5926747 210.326651,8.40556353 181.634676,7.01508228 C169.764349,6.44029672 157.73558,9.02633194 148.391766,16.0327181 C146.18535,15.7298311 143.975722,15.5838855 141.799281,15.6248702 C125.81909,15.9247583 113.266819,26.2419093 102.401745,36.1562106 C93.6146198,31.517941 85.2139658,26.3248783 77.5113143,20.560029 C71.1318702,15.7848105 65.4472171,10.5917479 58.2702087,6.76717477 C47.7391479,1.15526841 35.042352,-2.0765259 23.144191,1.50513788 C8.41869117,5.93848393 -0.937969545,18.6027592 0.0747765697,33.1183439 C1.57034351,54.5543467 21.7503269,71.5600024 41.3532805,80.2447624 C48.9510174,83.6115063 56.9352252,86.2585188 65.1549552,87.9468889 C69.1438474,88.7665831 73.1637858,89.1894254 77.1387607,89.9441438 C74.511616,100.64915 75.218183,112.883586 79.2284863,123.08378 C87.2672924,143.535151 109.927754,154.50006 132.483302,155.101835 C151.717984,155.615644 171.476168,153.520425 189.774114,147.843543 C192.949384,153.327497 197.85039,157.595905 204.93426,157.967766 C211.445382,158.309639 214.960018,155.904536 219.413531,152.063969 C227.500513,145.089571 234.245016,136.655717 239.682371,127.746041 C248.642926,113.066518 272.704746,64.6265891 241.485188,61.3987933" id="Fill-1" fill-opacity="0.2" fill="#2A2A2A" filter="url(#filter-3)" mask="url(#mask-2)"></path>
                </g>
                <g id="分组" transform="translate(14.000000, 0.000000)">
                    <path d="M16.8074,6.8698 C16.8074,6.8698 -19.8596,37.5368 29.4734,72.2038 C29.4734,72.2038 56.1404,88.8698 76.8074,90.2038 C76.8074,90.2038 61.4734,118.2038 92.1404,144.2038 C92.1404,144.2038 121.4734,166.2038 176.8074,146.8698 C176.8074,146.8698 190.1404,165.5368 206.1404,148.8698 C206.1404,148.8698 244.8074,98.8698 238.1404,76.2038 C238.1404,76.2038 234.8074,59.5368 211.4734,65.5368 C211.4734,65.5368 216.8074,18.8698 166.1404,9.5368 C166.1404,9.5368 146.1404,11.5368 139.4734,18.8698 C139.4734,18.8698 116.1404,12.8698 96.1404,40.8698 C96.1404,40.8698 70.8074,26.2038 61.4734,14.2038 C61.4734,14.2038 34.8074,-6.4632 16.8074,6.8698" id="Fill-1" fill="#FDFFFF"></path>
                    <path d="M158.8426,84.6159 C163.7326,86.8389 168.6206,89.0599 173.5096,91.2829 C174.9636,91.9439 176.2356,89.7899 174.7716,89.1239 C169.8826,86.9019 164.9936,84.6789 160.1046,82.4579 C158.6516,81.7969 157.3786,83.9509 158.8426,84.6159" id="Fill-3" fill="#4C310B"></path>
                    <path d="M162.5896,65.7536 C168.3676,70.6436 174.1456,75.5316 179.9236,80.4206 C181.1446,81.4536 182.9216,79.6936 181.6916,78.6526 C175.9126,73.7646 170.1356,68.8746 164.3576,63.9856 C163.1366,62.9526 161.3596,64.7126 162.5896,65.7536" id="Fill-5" fill="#4C310B"></path>
                    <path d="M180.3943,60.1676 C182.8383,63.5006 185.2833,66.8346 187.7273,70.1676 C188.6693,71.4516 190.8393,70.2056 189.8863,68.9056 C187.4423,65.5726 184.9983,62.2386 182.5533,58.9056 C181.6113,57.6216 179.4413,58.8676 180.3943,60.1676" id="Fill-7" fill="#4C310B"></path>
                    <path d="M10.8074,11.5368 C10.8074,11.5368 0.1404,55.5368 49.4734,73.5368 C49.4734,73.5368 103.4734,85.5368 108.8074,104.8698 C108.8074,104.8698 85.4734,89.2038 45.4734,80.8698 C45.4734,80.8698 -18.5266,56.8698 10.8074,11.5368" id="Fill-9" fill="#DBDEE3"></path>
                    <path d="M139.4734,19.5368 C139.4734,19.5368 115.4734,25.8698 117.4734,41.8698 C117.4734,41.8698 118.4734,50.2038 127.4734,53.5368 L96.1404,40.2038 C96.1404,40.2038 114.8074,18.2038 139.4734,19.5368" id="Fill-11" fill="#DBDEE3"></path>
                    <path d="M109.4734,106.8698 C109.4734,106.8698 104.5144,106.6738 101.8074,108.5368 C97.2954,111.6418 92.7234,118.6198 98.1404,128.2038 C98.1404,128.2038 110.4734,146.2038 175.1404,143.8698 C175.1404,143.8698 130.1404,164.2038 90.8074,141.5368 C90.8074,141.5368 68.8074,124.2038 76.8074,90.8698 C76.8074,90.8698 102.4734,94.2038 109.4734,106.8698" id="Fill-13" fill="#C9CFD6"></path>
                    <path d="M234.8074,76.5368 C234.8074,76.5368 214.8074,141.5368 178.8074,142.8698 C178.8074,142.8698 188.1404,168.8698 208.1404,144.2038 C208.1404,144.2038 238.8074,107.5368 234.8074,76.5368" id="Fill-15" fill="#DBDEE3"></path>
                    <path d="M96.8074,99.5368 C96.8074,99.5368 77.4734,95.5368 77.4734,120.2038 C77.4734,120.2038 71.4734,100.2038 77.4734,92.2038 C77.4734,92.2038 94.1404,94.8698 96.8074,99.5368" id="Fill-17" fill="#AAB5BD"></path>
                    <g transform="translate(0.000000, 0.059000)">
                        <mask id="mask-5" fill="white">
                            <use xlink:href="#path-4"></use>
                        </mask>
                        <g id="Clip-20"></g>
                        <path d="M233.6717,89.1487 C231.8477,98.4317 228.5877,107.5317 224.6857,116.1367 C220.4377,125.5017 215.0957,134.4177 208.3967,142.2407 C205.3537,145.7927 201.5867,150.6157 197.3977,152.9457 C185.5677,159.5257 178.8107,142.5027 177.9737,134.1447 C177.6557,130.9727 172.6527,130.9397 172.9737,134.1447 C173.2947,137.3527 174.0237,140.8817 175.2317,144.2497 C160.2087,149.1357 144.3477,151.1077 128.5787,151.1567 C118.4427,151.1887 108.3207,149.4657 99.1637,144.8967 C82.6837,136.6727 75.2377,120.1627 75.7807,102.3217 C75.8837,98.9257 76.1747,95.4527 76.9077,92.1137 C87.7177,95.0477 101.6237,99.2947 107.9827,108.7397 C109.7697,111.3947 114.1037,108.8947 112.2987,106.2157 C106.6087,97.7647 96.1717,93.4107 86.9257,90.0847 C78.6377,87.1037 70.7147,85.9747 62.1897,84.0987 C39.6187,79.1327 17.9407,66.9427 8.1517,45.6277 C2.4467,33.2057 4.7427,17.5537 16.8647,10.1007 C28.0347,3.2327 41.0967,5.8727 51.9057,12.0287 C58.2487,15.6397 63.2387,20.5237 68.8667,25.0437 C86.6467,39.3237 108.0217,50.2157 129.4767,57.8887 C132.5117,58.9737 133.8177,54.1447 130.8047,53.0667 C120.4877,49.3777 110.1377,44.8997 100.2297,39.6287 C109.1187,30.9887 119.5197,21.8437 132.4527,21.5717 C140.5697,21.4007 149.5587,24.4607 155.7057,29.9127 C158.1067,32.0407 161.6547,28.5167 159.2417,26.3767 C155.2287,22.8187 150.2577,20.1017 144.9897,18.4387 C162.4247,7.0097 185.4997,13.6667 197.7757,29.8487 C205.1217,39.5327 209.7127,52.5507 210.2697,64.7847 C200.0097,69.3457 191.9897,79.2167 185.9827,88.8827 C184.2777,91.6237 188.6017,94.1357 190.2987,91.4067 C197.3117,80.1267 208.9597,65.7317 223.4997,67.0817 C227.6597,67.4667 231.5467,68.0387 233.4477,72.2497 C235.7397,77.3227 234.7007,83.9107 233.6717,89.1487 M225.5697,62.3627 C221.8997,61.9567 218.4397,62.2517 215.1787,63.0827 C213.3827,38.5467 196.4647,9.3497 169.6627,7.9587 C158.5747,7.3827 147.3397,9.9707 138.6107,16.9797 C136.5517,16.6767 134.4867,16.5307 132.4527,16.5717 C117.5267,16.8717 105.8027,27.1927 95.6517,37.1107 C87.4447,32.4707 79.5977,27.2757 72.4017,21.5077 C66.4427,16.7317 61.1347,11.5367 54.4297,7.7107 C44.5937,2.0967 32.7327,-1.1363 21.6187,2.4467 C7.8637,6.8807 -0.8763,19.5507 0.0697,34.0717 C1.4667,55.5157 20.3177,72.5277 38.6267,81.2147 C45.7257,84.5837 53.1837,87.2317 60.8607,88.9197 C64.5857,89.7407 68.3427,90.1637 72.0557,90.9187 C69.6017,101.6277 70.2617,113.8667 74.0067,124.0707 C81.5167,144.5297 102.6837,155.4987 123.7517,156.1007 C141.7187,156.6147 160.1757,154.5187 177.2677,148.8387 C180.2337,154.3257 184.8107,158.5957 191.4287,158.9677 C197.5097,159.3097 200.7927,156.9037 204.9527,153.0617 C212.5077,146.0847 218.8067,137.6477 223.8867,128.7347 C232.2557,114.0487 254.7327,65.5907 225.5697,62.3627" id="Fill-19" fill="#4C310B" mask="url(#mask-5)"></path>
                    </g>
                </g>
            </g>
        </g>
    </g>
</svg>